HIERARCHY
ROOT Hips
{
	OFFSET 0.000000 0.000000 0.000000
	CHANNELS 6 Xposition Yposition Zposition Zrotation Yrotation Xrotation 
	JOINT LHipJoint
	{
		OFFSET 0.000000 0.000000 0.000000
		CHANNELS 3 Zrotation Yrotation Xrotation
		JOINT LeftUpLeg
		{
			OFFSET 1.363060 -1.794630 0.839290
			CHANNELS 3 Zrotation Yrotation Xrotation
			JOINT LeftLeg
			{
				OFFSET 2.448110 -6.726130 0.000000
				CHANNELS 3 Zrotation Yrotation Xrotation
				JOINT LeftFoot
				{
					OFFSET 2.562200 -7.039590 0.000000
					CHANNELS 3 Zrotation Yrotation Xrotation
					JOINT LeftToeBase
					{
						OFFSET 0.157640 -0.433110 2.322550
						CHANNELS 3 Zrotation Yrotation Xrotation
						End Site
						{
							OFFSET 0.000000 0.000000 0.000000
						}
					}
				}
			}
		}
	}
	JOINT RHipJoint
	{
		OFFSET 0.000000 0.000000 0.000000
		CHANNELS 3 Zrotation Yrotation Xrotation
		JOINT RightUpLeg
		{
			OFFSET -1.305520 -1.794630 0.839290
			CHANNELS 3 Zrotation Yrotation Xrotation
			JOINT RightLeg
			{
				OFFSET -2.542530 -6.985550 0.000000
				CHANNELS 3 Zrotation Yrotation Xrotation
				JOINT RightFoot
				{
					OFFSET -2.568260 -7.056230 0.000000
					CHANNELS 3 Zrotation Yrotation Xrotation
					JOINT RightToeBase
					{
						OFFSET -0.164730 -0.452590 2.363150
						CHANNELS 3 Zrotation Yrotation Xrotation
						End Site
						{
							OFFSET 0.000000 0.000000 0.000000
						}
					}
				}
			}
		}
	}
}
MOTION
Frames: 19
Frame Time: 0.008333
-2.711282 16.705141 -1.925991 44.714233 87.185644 64.884425 -8.713714 0.639546 3.875003 -12.898008 -2.244267 -48.835393 -3.009813 0.806384 25.743262 -0.535529 -4.337314 -0.531913 -0.248000 -0.000000 -27.121600 11.520978 -4.586718 0.904101 3.836631 -5.925936 -5.782497 0.751917 -2.221002 30.356215 0.581390 14.357007 17.184291 5.683500 0.000000 -81.779099
-2.531450 16.664523 -1.915083 45.046403 86.898656 65.050374 -8.678044 0.665060 3.791919 -13.052766 -2.499443 -49.097026 -2.788430 1.018036 28.471367 -0.375611 -3.512701 -1.422985 -0.128700 0.000000 -25.079800 11.728137 -4.536685 0.802113 3.154590 -6.541219 -6.646623 0.554524 -2.358970 32.870444 0.472758 15.146318 18.678802 6.414600 -0.000001 -81.951400
-2.356069 16.634838 -1.902729 44.603787 86.521894 64.468817 -8.649797 0.679343 3.716538 -13.196477 -2.779456 -49.081225 -2.607600 1.162836 30.689608 -0.204017 -2.638363 -2.480370 -0.023400 -0.000001 -23.603300 11.905811 -4.454318 0.710663 2.495554 -6.984879 -7.620729 0.346494 -2.487314 35.434185 0.332168 15.699563 20.419119 7.151900 -0.000000 -81.367600
-2.184769 16.616391 -1.888668 43.502180 86.048252 63.245843 -8.621452 0.691841 3.641412 -13.362532 -3.042855 -48.800544 -2.477475 1.248249 32.382293 -0.026482 -1.755472 -3.677237 0.053901 -0.000000 -22.715300 12.061037 -4.339022 0.632449 1.853404 -7.263947 -8.685296 0.136624 -2.603532 38.010296 0.163465 15.955658 22.320324 7.825700 -0.000000 -79.956500
-2.016879 16.609042 -1.873882 41.679343 85.488923 61.312167 -8.606596 0.701748 3.558952 -13.537018 -3.225624 -48.297744 -2.396453 1.285736 33.584867 0.150867 -0.910903 -4.975746 0.092700 -0.000001 -22.370800 12.177651 -4.199093 0.573563 1.273390 -7.360133 -9.807639 -0.065526 -2.706233 40.548866 -0.027091 15.814513 24.268378 8.323400 0.000000 -77.764400
-1.851832 16.612231 -1.858915 39.301919 84.850284 58.821313 -8.606170 0.713077 3.463133 -13.717492 -3.288649 -47.596822 -2.359359 1.284038 34.334271 0.324435 -0.122461 -6.314979 0.090699 -0.000000 -22.487800 12.257570 -4.039741 0.533859 0.766333 -7.293062 -10.959683 -0.254804 -2.795849 43.013697 -0.233807 15.200690 26.138211 8.532400 0.000000 -75.009900
-1.688968 16.625055 -1.844036 36.620838 84.138795 56.011469 -8.615758 0.731041 3.349968 -13.906377 -3.211606 -46.714631 -2.358342 1.250243 34.671921 0.491327 0.607523 -7.619443 0.052000 -0.000000 -22.956800 12.310478 -3.864989 0.510276 0.326977 -7.099177 -12.115836 -0.429598 -2.874117 45.374654 -0.452914 14.057599 27.806803 8.355300 -0.000000 -72.031600
-1.527629 16.646470 -1.829847 33.801894 83.369583 53.042180 -8.637744 0.757647 3.218532 -14.093030 -2.978096 -45.680101 -2.383096 1.192016 34.654294 0.647085 1.274277 -8.813326 -0.014200 0.000000 -23.648400 12.338868 -3.681193 0.500972 -0.034300 -6.808483 -13.255825 -0.590716 -2.942804 47.604690 -0.682214 12.345721 29.158283 7.722700 0.000000 -69.180400
-1.367167 16.675300 -1.816730 31.019530 82.561077 50.085718 -8.671548 0.795307 3.071101 -14.272227 -2.590500 -44.520906 -2.423801 1.116050 34.338302 0.787146 1.878318 -9.826699 -0.095200 -0.000001 -24.425500 12.348461 -3.493186 0.502410 -0.316885 -6.460713 -14.367960 -0.740316 -3.004071 49.684390 -0.920725 10.070901 30.087772 6.618900 0.000000 -66.712400
-1.207078 16.710396 -1.804858 28.409795 81.736683 47.280896 -8.716535 0.845799 2.913069 -14.440031 -2.065047 -43.266900 -2.471926 1.028438 33.780717 0.907175 2.420750 -10.605789 -0.177000 -0.000000 -25.164800 12.343987 -3.305264 0.510133 -0.522045 -6.099389 -15.447830 -0.880490 -3.060268 51.599337 -1.167162 7.292361 30.503474 5.091800 0.000000 -64.723300
-1.046938 16.750587 -1.794240 26.061853 80.923635 44.723656 -8.772323 0.910210 2.752175 -14.593576 -1.429344 -41.949295 -2.520918 0.934606 33.035232 1.003689 2.901314 -11.118243 -0.246699 -0.000000 -25.779000 12.328358 -3.121046 0.518901 -0.651887 -5.768821 -16.497272 -1.012367 -3.113639 53.336643 -1.418720 4.127711 30.334355 3.254100 0.000000 -63.153100
-0.886550 16.794900 -1.784749 24.028379 80.149855 42.475328 -8.838106 0.989084 2.597169 -14.731619 -0.719038 -40.596534 -2.566613 0.838874 32.148140 1.074904 3.319480 -11.355869 -0.294600 0.000000 -26.226200 12.303295 -2.943377 0.522906 -0.710510 -5.511170 -17.520794 -1.135551 -3.166038 54.883249 -1.670446 0.748430 29.541839 1.273700 0.000000 -61.830600
-0.725785 16.842406 -1.776177 22.308168 79.441791 40.546200 -8.914730 1.081923 2.457420 -14.848574 0.030341 -39.239894 -2.606941 0.744819 31.160864 1.120480 3.670648 -11.335254 -0.315100 0.000000 -26.507800 12.267277 -2.774931 0.518231 -0.695867 -5.357555 -18.526398 -1.247936 -3.217539 56.224168 -1.915488 -2.642300 28.136568 -0.654900 -0.000000 -60.553800
-0.564774 16.892390 -1.768154 20.896253 78.820167 38.940106 -9.000819 1.187736 2.339987 -14.943477 0.782359 -37.900069 -2.641906 0.654269 30.102492 1.142058 3.952407 -11.090562 -0.307500 0.000001 -26.658400 12.220092 -2.617086 0.501033 -0.611679 -5.331689 -19.519260 -1.345413 -3.267426 57.344806 -2.145406 -5.835556 26.181311 -2.345399 0.000000 -59.123100
-0.403745 16.944263 -1.760291 19.762462 78.298277 37.634923 -9.095420 1.304543 2.249638 -15.013731 1.508386 -36.594739 -2.672719 0.568057 28.995630 1.142391 4.161719 -10.669404 -0.275000 -0.000001 -26.731300 12.160470 -2.470469 0.470162 -0.459324 -5.442019 -20.504409 -1.422621 -3.313215 58.231904 -2.351525 -8.655270 23.795006 -3.661900 -0.000000 -57.441400
-0.243087 16.997511 -1.752133 18.882449 77.880316 36.608915 -9.195969 1.429852 2.187259 -15.060652 2.187041 -35.329088 -2.701406 0.485667 27.852715 1.124963 4.298248 -10.123089 -0.223400 0.000000 -26.789200 12.088961 -2.334762 0.424526 -0.246202 -5.689860 -21.482939 -1.473981 -3.352848 58.880489 -2.524657 -10.974112 21.124189 -4.536200 0.000001 -55.372700
-0.083172 17.051650 -1.743275 18.220923 77.561629 35.827227 -9.300380 1.560606 2.150641 -15.084966 2.808848 -34.105060 -2.729922 0.406288 26.683078 1.093127 4.362602 -9.499668 -0.159900 0.000000 -26.896300 12.006045 -2.208955 0.365213 0.021408 -6.063595 -22.454489 -1.495109 -3.383891 59.290071 -2.657611 -12.732100 18.339898 -4.978700 0.000000 -52.963900
0.075543 17.106279 -1.733407 17.739980 77.329540 35.249251 -9.406757 1.693721 2.135106 -15.088091 3.374743 -32.920715 -2.759786 0.329012 25.493427 1.049781 4.357138 -8.837647 -0.091000 0.000001 -27.112900 11.912793 -2.091501 0.295200 0.336710 -6.541381 -23.417214 -1.484163 -3.404246 59.464704 -2.746572 -13.933362 15.619653 -5.063500 -0.000000 -50.446100
0.232739 17.160950 -1.722219 17.406782 77.164562 34.836219 -9.512957 1.826484 2.133372 -15.073857 3.894384 -31.768412 -2.791912 0.253103 24.288154 0.997288 4.287100 -8.161510 -0.021800 0.000000 -27.490800 11.811770 -1.980760 0.217125 0.689054 -7.098269 -24.367742 -1.442423 -3.413780 59.417894 -2.790194 -14.623050 13.107132 -4.893800 -0.000000 -48.006300
